# xmcd
# 
# Track frame offsets:
#     150
#     18402
#     43725
# 
# Disc length: 823
# 
# Revision: 1
# Processed by: cddbd v1.5.2PL0 Copyright (c) Steve Scherf et al.
# Submitted via: fre:ac v1.0.31
# 
DISCID=1d033503
DTITLE=the OYSTARS - なんか幸せ
DYEAR=1997
DGENRE=Anime
TTITLE0=なんか幸せ
TTITLE1=documentary
TTITLE2=なんか幸せ （カラオケ）
EXTD=YEAR: 1997
EXTT0=
EXTT1=
EXTT2=
PLAYORDER=
